<?xml version="1.0" encoding="UTF-8"?>
<svg width="1440px" height="500px" viewBox="0 0 1440 500" version="1.1" xmlns="http://www.w3.org/2000/svg" xmlns:xlink="http://www.w3.org/1999/xlink">
    <title>BG</title>
    <defs>
        <rect id="path-1" x="0" y="0" width="1440" height="500"></rect>
        <rect id="path-3" x="0" y="0" width="1440" height="810"></rect>
        <linearGradient x1="-1.17730996e-06%" y1="34.4416678%" x2="100.000001%" y2="65.5583322%" id="linearGradient-5">
            <stop stop-color="#001E34" offset="0%"></stop>
            <stop stop-color="#00528E" offset="100%"></stop>
        </linearGradient>
        <linearGradient x1="60.5657922%" y1="-3.53679211%" x2="39.4342078%" y2="103.536792%" id="linearGradient-6">
            <stop stop-color="#001E34" offset="0%"></stop>
            <stop stop-color="#00528E" offset="100%"></stop>
        </linearGradient>
    </defs>
    <g id="Website" stroke="none" stroke-width="1" fill="none" fill-rule="evenodd">
        <g id="Desktop-HD" transform="translate(0.000000, -80.000000)">
            <g id="BG" transform="translate(0.000000, 80.000000)">
                <mask id="mask-2" fill="white">
                    <use xlink:href="#path-1"></use>
                </mask>
                <use id="Mask" fill="#D8D8D8" xlink:href="#path-1"></use>
                <g mask="url(#mask-2)">
                    <mask id="mask-4" fill="white">
                        <use xlink:href="#path-3"></use>
                    </mask>
                    <use id="Mask" fill="#D8D8D8" xlink:href="#path-3"></use>
                    <g mask="url(#mask-4)" fill-rule="nonzero">
                        <g transform="translate(-241.000000, -294.000000)">
                            <rect id="Rectangle" fill="url(#linearGradient-5)" x="240.251194" y="284.377208" width="1470" height="820"></rect>
                            <path d="M500.120625,1199.82751 L542.33036,1396.89672 L392.968902,1261.76433 L298.68107,1440 L271.165203,1240.33136 L84.498081,1316.33501 L191.702768,1145.55727 L-2.7000624e-13,1083.76597 L191.762996,1021.78795 L500.120625,1199.82751 Z M1004.32876,538.154697 L615.989217,1209.9375 L115.343079,921.250729 L172.682857,822.059499 L574.102515,1053.52789 L905.101597,480.937499 L1004.32876,538.154697 Z M954.66802,52.4919306 C1034.27428,98.4526265 1083.54356,154.675774 1102.47891,221.15601 C1121.15488,286.725564 1107.89223,359.328473 1062.691,438.964763 L1060.79025,442.287653 L1031.49559,493.027479 L932.334915,435.770356 L972.614654,366.000198 C973.945052,363.695762 975.214944,361.372982 976.424788,359.033666 C976.705184,358.49156 976.982138,357.948858 977.255912,357.405312 C979.08532,353.773386 980.771389,350.10243 982.315792,346.399749 C982.497717,345.963562 982.676348,345.530167 982.853057,345.096353 C983.363727,343.842666 983.859426,342.582431 984.338939,341.318901 C984.830778,340.022881 985.304756,338.725841 985.761868,337.425642 C985.924985,336.961655 986.085493,336.498545 986.243925,336.035077 C987.232538,333.142283 988.138118,330.234252 988.961525,327.314283 C989.308687,326.083049 989.641612,324.848367 989.959945,323.611791 C990.529185,321.400441 991.05144,319.184385 991.527493,316.963622 L991.78851,315.723163 C992.051915,314.447339 992.300115,313.170059 992.53311,311.891528 C992.627674,311.372857 992.719752,310.853705 992.809395,310.334396 C992.888354,309.876588 992.965621,309.417546 993.040882,308.958335 L993.219819,307.843603 C993.261157,307.580562 993.301778,307.317827 993.341762,307.055049 C993.693813,304.742191 993.996819,302.425699 994.251093,300.107734 C994.3055,299.611776 994.357948,299.113383 994.408142,298.614937 C994.446781,298.230821 994.484134,297.84664 994.520126,297.462424 C994.562425,297.011381 994.602882,296.559887 994.641489,296.108369 C994.674276,295.725124 994.70567,295.343145 994.735703,294.961131 C994.773487,294.480954 994.809343,293.998807 994.843055,293.516627 C994.871274,293.113708 994.897971,292.711447 994.923223,292.309192 C994.948555,291.906172 994.97238,291.50316 994.994755,291.100162 L995.065434,289.726676 C995.090335,289.200631 995.112694,288.676593 995.132613,288.152618 C995.14437,287.842651 995.155403,287.529253 995.165576,287.215887 L995.204927,285.82286 C995.215979,285.365668 995.225235,284.904822 995.232587,284.444046 C995.26908,282.154266 995.258904,279.869019 995.202589,277.587074 C995.195204,277.288716 995.186986,276.987843 995.177959,276.687018 C995.168963,276.387286 995.159204,276.089394 995.148679,275.791582 C995.096188,274.305927 995.024133,272.821474 994.932575,271.338948 C994.909877,270.971342 994.885727,270.600214 994.860356,270.229222 C994.832669,269.824038 994.803669,269.421127 994.773249,269.018388 C994.719719,268.309964 994.66175,267.602152 994.599332,266.894863 C994.589997,266.788715 994.580355,266.680811 994.570639,266.57293 L994.413119,264.916618 C994.377089,264.556699 994.340012,264.197551 994.301769,263.838551 C994.245741,263.312776 994.187219,262.786533 994.126217,262.260629 C994.092565,261.970708 994.058189,261.680898 994.023082,261.391206 C993.954418,260.82486 993.882921,260.258944 993.808541,259.693441 L993.724667,259.064437 L993.638471,258.436123 C993.600158,258.160625 993.560867,257.883387 993.520952,257.606292 L993.28434,256.017858 L992.994185,254.197066 C992.966957,254.032076 992.93925,253.86552 992.91128,253.699004 C992.832679,253.231276 992.75191,252.762512 992.66918,252.294129 C992.582679,251.804274 992.494452,251.317199 992.404069,250.83053 L992.232895,249.922292 L991.939652,248.425912 C991.846252,247.960187 991.75033,247.492374 991.652513,247.025035 C991.590179,246.727438 991.52735,246.431218 991.463707,246.135159 C991.353629,245.623162 991.241246,245.111827 991.126459,244.601013 L990.970348,243.91267 L990.594467,242.307199 C990.492572,241.88138 990.388979,241.455588 990.283716,241.03019 C990.151441,240.49564 990.017036,239.963426 989.880033,239.431861 C989.571089,238.23323 989.248947,237.037473 988.91378,235.84533 L988.545806,234.556052 C988.43148,234.161342 988.315305,233.765672 988.19769,233.370414 C988.083887,232.988018 987.969109,232.607207 987.853013,232.226806 L987.487513,231.044733 C987.347153,230.59664 987.204095,230.146351 987.059096,229.696611 C986.927969,229.289781 986.795625,228.884434 986.661739,228.47957 C986.517656,228.04386 986.37201,227.609294 986.224595,227.175297 C986.09075,226.781293 985.955529,226.388007 985.818883,225.995212 C985.707177,225.674038 985.594198,225.352362 985.480206,225.030984 C985.28911,224.492139 985.095243,223.954034 984.89862,223.416853 L984.506015,222.355223 L984.110173,221.306279 C983.92836,220.829221 983.744427,220.353129 983.558353,219.87783 C983.370854,219.398857 983.180794,218.919846 982.988564,218.441677 C982.87871,218.168407 982.769627,217.899111 982.65985,217.630081 C982.497673,217.232582 982.333144,216.833642 982.167028,216.435262 C981.97145,215.966121 981.774183,215.498863 981.574763,215.03242 C981.462568,214.769971 981.349737,214.507792 981.23617,214.245848 L980.571156,212.731879 L980.177919,211.855078 C979.926418,211.298548 979.672163,210.743873 979.414882,210.190483 L979.076823,209.467839 C978.887154,209.06487 978.696055,208.663026 978.503394,208.261908 C978.255732,207.746301 978.004607,207.230238 977.750863,206.715381 C977.618739,206.447375 977.487943,206.183731 977.356429,205.920393 L976.479573,204.189475 L976.220254,203.686876 L975.336802,202.00465 L974.97447,201.327695 C974.757821,200.925135 974.539153,200.522741 974.318769,200.121133 C974.055378,199.6411 973.789209,199.161505 973.520621,198.683081 C973.398626,198.465819 973.278072,198.252204 973.157068,198.038845 C972.894537,197.575955 972.627934,197.111062 972.359091,196.647342 C972.077998,196.162575 971.795711,195.681231 971.510993,195.201184 L971.245187,194.754585 L970.8276,194.059246 C970.645156,193.757125 970.461749,193.455529 970.277372,193.154466 L969.885717,192.5181 C969.809377,192.394665 969.732867,192.271317 969.656188,192.148052 C969.449618,191.815998 969.242303,191.485339 969.033864,191.155375 L968.291768,189.991345 C968.034632,189.591563 967.775147,189.191894 967.513884,188.793223 C967.294439,188.458381 967.075009,188.126118 966.854382,187.794573 C966.608749,187.425457 966.359893,187.054742 966.109548,186.68494 C965.885732,186.354339 965.661847,186.026149 965.436717,185.698656 C965.200625,185.355175 964.962593,185.011619 964.723204,184.668851 C963.50987,182.931561 962.262448,181.215215 960.980834,179.520411 L960.598183,179.016373 C960.297532,178.621906 959.995052,178.228629 959.690689,177.836533 C959.536837,177.638329 959.384722,177.443259 959.232182,177.248508 C958.914874,176.84344 958.593201,176.436668 958.269505,176.031213 C958.035898,175.738601 957.801505,175.447036 957.566145,175.156209 C957.261213,174.779464 956.955341,174.404866 956.64776,174.031461 C956.38409,173.711388 956.120071,173.393275 955.854774,173.076021 C955.689024,172.877814 955.520611,172.67735 955.35165,172.477212 C954.358948,171.301307 953.350803,170.139764 952.325345,168.990617 C952.071228,168.70584 951.816824,168.422704 951.561374,168.14034 C951.288642,167.838878 951.014737,167.538306 950.739654,167.238627 C950.320122,166.781608 949.896794,166.325543 949.470651,165.871544 C949.269037,165.65676 949.068625,165.44437 948.867593,165.232431 L947.937069,164.259247 C947.618715,163.928965 947.29942,163.600415 946.978664,163.273044 C946.747872,163.037494 946.516884,162.803116 946.285083,162.569312 C945.865591,162.146161 945.44217,161.723568 945.016128,161.302913 C944.919362,161.207364 944.825003,161.11441 944.730479,161.021536 C944.209004,160.50906 943.681513,159.997428 943.150226,159.488832 C943.041496,159.384753 942.933288,159.281438 942.824893,159.178237 C941.669506,158.078115 940.495686,156.991806 939.304034,155.920251 L938.123227,154.868428 C937.848221,154.625766 937.572604,154.384163 937.296055,154.143342 C937.006271,153.890989 936.715417,153.639448 936.423531,153.388757 C936.003157,153.027718 935.581924,152.669521 935.158622,152.313137 C933.969125,151.311655 932.760533,150.322325 931.535516,149.347704 C931.3775,149.221982 931.21781,149.095414 931.0579,148.969121 C929.285926,147.569781 927.481573,146.202374 925.643508,144.866816 C923.798261,143.526 921.917563,142.216299 920.003217,140.940001 C919.919769,140.884364 919.835838,140.82852 919.751866,140.772749 C917.77145,139.457451 915.755111,138.177833 913.703253,136.935275 L910.598774,135.09935 C830.50377,88.8540901 728.354636,115.483628 681.051698,194.431316 L679.635161,196.839674 L309.249743,838.399165 L201.071303,775.942313 L569.403684,137.938969 C585.896756,109.37213 606.338771,83.6143614 630.731605,60.6667339 C655.124485,37.7191324 683.371737,20.9646371 715.473407,10.4032739 C747.575074,-0.158084777 783.525496,-2.67801226 823.324621,2.84347443 C863.123747,8.36496113 906.904309,24.9155391 954.66802,52.4919306 Z" id="Combined-Shape" fill="url(#linearGradient-6)"></path>
                            <path d="M1275.45117,1199.82751 L1317.66091,1396.89672 L1168.29945,1261.76433 L1074.01162,1440 L1046.49575,1240.33136 L859.82863,1316.33501 L967.033317,1145.55727 L775.330549,1083.76597 L967.093545,1021.78795 L1275.45117,1199.82751 Z M1779.65931,538.154697 L1391.31977,1209.9375 L890.673628,921.250729 L948.013406,822.059499 L1349.43306,1053.52789 L1680.43215,480.937499 L1779.65931,538.154697 Z M1729.99857,52.4919306 C1809.60483,98.4526265 1858.87411,154.675774 1877.80946,221.15601 C1896.48543,286.725564 1883.22278,359.328473 1838.02155,438.964763 L1836.12079,442.287653 L1806.82614,493.027479 L1707.66546,435.770356 L1747.9452,366.000198 C1749.2756,363.695762 1750.54549,361.372982 1751.75534,359.033666 C1752.03573,358.49156 1752.31269,357.948858 1752.58646,357.405312 C1754.41587,353.773386 1756.10194,350.10243 1757.64634,346.399749 C1757.82827,345.963562 1758.0069,345.530167 1758.18361,345.096353 C1758.69428,343.842666 1759.18998,342.582431 1759.66949,341.318901 C1760.16133,340.022881 1760.63531,338.725841 1761.09242,337.425642 C1761.25553,336.961655 1761.41604,336.498545 1761.57447,336.035077 C1762.56309,333.142283 1763.46867,330.234252 1764.29207,327.314283 C1764.63924,326.083049 1764.97216,324.848367 1765.29049,323.611791 C1765.85973,321.400441 1766.38199,319.184385 1766.85804,316.963622 L1767.11906,315.723163 C1767.38246,314.447339 1767.63066,313.170059 1767.86366,311.891528 C1767.95822,311.372857 1768.0503,310.853705 1768.13994,310.334396 C1768.2189,309.876588 1768.29617,309.417546 1768.37143,308.958335 L1768.55037,307.843603 C1768.59171,307.580562 1768.63233,307.317827 1768.67231,307.055049 C1769.02436,304.742191 1769.32737,302.425699 1769.58164,300.107734 C1769.63605,299.611776 1769.6885,299.113383 1769.73869,298.614937 C1769.77733,298.230821 1769.81468,297.84664 1769.85068,297.462424 C1769.89297,297.011381 1769.93343,296.559887 1769.97204,296.108369 C1770.00482,295.725124 1770.03622,295.343145 1770.06625,294.961131 C1770.10404,294.480954 1770.13989,293.998807 1770.1736,293.516627 C1770.20182,293.113708 1770.22852,292.711447 1770.25377,292.309192 C1770.2791,291.906172 1770.30293,291.50316 1770.3253,291.100162 L1770.39598,289.726676 C1770.42088,289.200631 1770.44324,288.676593 1770.46316,288.152618 C1770.47492,287.842651 1770.48595,287.529253 1770.49613,287.215887 L1770.53548,285.82286 C1770.54653,285.365668 1770.55578,284.904822 1770.56314,284.444046 C1770.59963,282.154266 1770.58945,279.869019 1770.53314,277.587074 C1770.52575,277.288716 1770.51754,276.987843 1770.50851,276.687018 C1770.49951,276.387286 1770.48975,276.089394 1770.47923,275.791582 C1770.42674,274.305927 1770.35468,272.821474 1770.26312,271.338948 C1770.24043,270.971342 1770.21628,270.600214 1770.19091,270.229222 C1770.16322,269.824038 1770.13422,269.421127 1770.1038,269.018388 C1770.05027,268.309964 1769.9923,267.602152 1769.92988,266.894863 C1769.92055,266.788715 1769.9109,266.680811 1769.90119,266.57293 L1769.74367,264.916618 C1769.70764,264.556699 1769.67056,264.197551 1769.63232,263.838551 C1769.57629,263.312776 1769.51777,262.786533 1769.45677,262.260629 C1769.42311,261.970708 1769.38874,261.680898 1769.35363,261.391206 C1769.28497,260.82486 1769.21347,260.258944 1769.13909,259.693441 L1769.05522,259.064437 L1768.96902,258.436123 C1768.93071,258.160625 1768.89142,257.883387 1768.8515,257.606292 L1768.61489,256.017858 L1768.32473,254.197066 C1768.29751,254.032076 1768.2698,253.86552 1768.24183,253.699004 C1768.16323,253.231276 1768.08246,252.762512 1767.99973,252.294129 C1767.91323,251.804274 1767.825,251.317199 1767.73462,250.83053 L1767.56344,249.922292 L1767.2702,248.425912 C1767.1768,247.960187 1767.08088,247.492374 1766.98306,247.025035 C1766.92073,246.727438 1766.8579,246.431218 1766.79426,246.135159 C1766.68418,245.623162 1766.5718,245.111827 1766.45701,244.601013 L1766.3009,243.91267 L1765.92502,242.307199 C1765.82312,241.88138 1765.71953,241.455588 1765.61426,241.03019 C1765.48199,240.49564 1765.34759,239.963426 1765.21058,239.431861 C1764.90164,238.23323 1764.5795,237.037473 1764.24433,235.84533 L1763.87636,234.556052 C1763.76203,234.161342 1763.64585,233.765672 1763.52824,233.370414 C1763.41444,232.988018 1763.29966,232.607207 1763.18356,232.226806 L1762.81806,231.044733 C1762.6777,230.59664 1762.53464,230.146351 1762.38965,229.696611 C1762.25852,229.289781 1762.12617,228.884434 1761.99229,228.47957 C1761.8482,228.04386 1761.70256,227.609294 1761.55514,227.175297 C1761.4213,226.781293 1761.28608,226.388007 1761.14943,225.995212 C1761.03773,225.674038 1760.92475,225.352362 1760.81075,225.030984 C1760.61966,224.492139 1760.42579,223.954034 1760.22917,223.416853 L1759.83656,222.355223 L1759.44072,221.306279 C1759.25891,220.829221 1759.07498,220.353129 1758.8889,219.87783 C1758.7014,219.398857 1758.51134,218.919846 1758.31911,218.441677 C1758.20926,218.168407 1758.10018,217.899111 1757.9904,217.630081 C1757.82822,217.232582 1757.66369,216.833642 1757.49758,216.435262 C1757.302,215.966121 1757.10473,215.498863 1756.90531,215.03242 C1756.79312,214.769971 1756.68029,214.507792 1756.56672,214.245848 L1755.90171,212.731879 L1755.50847,211.855078 C1755.25697,211.298548 1755.00271,210.743873 1754.74543,210.190483 L1754.40737,209.467839 C1754.2177,209.06487 1754.0266,208.663026 1753.83394,208.261908 C1753.58628,207.746301 1753.33516,207.230238 1753.08141,206.715381 C1752.94929,206.447375 1752.81849,206.183731 1752.68698,205.920393 L1751.81012,204.189475 L1751.5508,203.686876 L1750.66735,202.00465 L1750.30502,201.327695 C1750.08837,200.925135 1749.8697,200.522741 1749.64932,200.121133 C1749.38593,199.6411 1749.11976,199.161505 1748.85117,198.683081 C1748.72918,198.465819 1748.60862,198.252204 1748.48762,198.038845 C1748.22509,197.575955 1747.95848,197.111062 1747.68964,196.647342 C1747.40855,196.162575 1747.12626,195.681231 1746.84154,195.201184 L1746.57574,194.754585 L1746.15815,194.059246 C1745.97571,193.757125 1745.7923,193.455529 1745.60792,193.154466 L1745.21627,192.5181 C1745.13993,192.394665 1745.06342,192.271317 1744.98674,192.148052 C1744.78017,191.815998 1744.57285,191.485339 1744.36441,191.155375 L1743.62232,189.991345 C1743.36518,189.591563 1743.1057,189.191894 1742.84443,188.793223 C1742.62499,188.458381 1742.40556,188.126118 1742.18493,187.794573 C1741.9393,187.425457 1741.69044,187.054742 1741.4401,186.68494 C1741.21628,186.354339 1740.9924,186.026149 1740.76727,185.698656 C1740.53117,185.355175 1740.29314,185.011619 1740.05375,184.668851 C1738.84042,182.931561 1737.593,181.215215 1736.31138,179.520411 L1735.92873,179.016373 C1735.62808,178.621906 1735.3256,178.228629 1735.02124,177.836533 C1734.86739,177.638329 1734.71527,177.443259 1734.56273,177.248508 C1734.24542,176.84344 1733.92375,176.436668 1733.60005,176.031213 C1733.36645,175.738601 1733.13205,175.447036 1732.89669,175.156209 C1732.59176,174.779464 1732.28589,174.404866 1731.97831,174.031461 C1731.71464,173.711388 1731.45062,173.393275 1731.18532,173.076021 C1731.01957,172.877814 1730.85116,172.67735 1730.6822,172.477212 C1729.6895,171.301307 1728.68135,170.139764 1727.65589,168.990617 C1727.40178,168.70584 1727.14737,168.422704 1726.89192,168.14034 C1726.61919,167.838878 1726.34529,167.538306 1726.0702,167.238627 C1725.65067,166.781608 1725.22734,166.325543 1724.8012,165.871544 C1724.59959,165.65676 1724.39917,165.44437 1724.19814,165.232431 L1723.26762,164.259247 C1722.94926,163.928965 1722.62997,163.600415 1722.30921,163.273044 C1722.07842,163.037494 1721.84743,162.803116 1721.61563,162.569312 C1721.19614,162.146161 1720.77272,161.723568 1720.34668,161.302913 C1720.24991,161.207364 1720.15555,161.11441 1720.06103,161.021536 C1719.53955,160.50906 1719.01206,159.997428 1718.48078,159.488832 C1718.37205,159.384753 1718.26384,159.281438 1718.15544,159.178237 C1717.00005,158.078115 1715.82624,156.991806 1714.63458,155.920251 L1713.45378,154.868428 C1713.17877,154.625766 1712.90315,154.384163 1712.6266,154.143342 C1712.33682,153.890989 1712.04597,153.639448 1711.75408,153.388757 C1711.33371,153.027718 1710.91247,152.669521 1710.48917,152.313137 C1709.29967,151.311655 1708.09108,150.322325 1706.86607,149.347704 C1706.70805,149.221982 1706.54836,149.095414 1706.38845,148.969121 C1704.61648,147.569781 1702.81212,146.202374 1700.97406,144.866816 C1699.12881,143.526 1697.24811,142.216299 1695.33377,140.940001 C1695.25032,140.884364 1695.16639,140.82852 1695.08242,140.772749 C1693.102,139.457451 1691.08566,138.177833 1689.0338,136.935275 L1685.92932,135.09935 C1605.83432,88.8540901 1503.68518,115.483628 1456.38225,194.431316 L1454.96571,196.839674 L1084.58029,838.399165 L976.401852,775.942313 L1344.73423,137.938969 C1361.22731,109.37213 1381.66932,83.6143614 1406.06215,60.6667339 C1430.45503,37.7191324 1458.70229,20.9646371 1490.80396,10.4032739 C1522.90562,-0.158084777 1558.85605,-2.67801226 1598.65517,2.84347443 C1638.4543,8.36496113 1682.23486,24.9155391 1729.99857,52.4919306 Z" id="Combined-Shape-Copy-2" fill="url(#linearGradient-6)"></path>
                        </g>
                    </g>
                </g>
            </g>
        </g>
    </g>
</svg>