<?xml version="1.0" encoding="UTF-8"?>
<svg width="50px" height="50px" viewBox="0 0 50 50" version="1.1" xmlns="http://www.w3.org/2000/svg" xmlns:xlink="http://www.w3.org/1999/xlink">
    <title>Combined Shape</title>
    <g id="Website" stroke="none" stroke-width="1" fill="none" fill-rule="evenodd">
        <g id="Desktop-HD" transform="translate(-29.000000, -16.000000)" fill="#FFFFFF">
            <path d="M54,16 C67.8071187,16 79,27.1928813 79,41 C79,54.8071187 67.8071187,66 54,66 C40.1928813,66 29,54.8071187 29,41 C29,27.1928813 40.1928813,16 54,16 Z M43.8182954,49.4747259 L38.5121258,51.1983785 L43.8121626,52.903019 L40.840847,57.6372672 L46.006577,55.5253019 L46.7604265,61.054938 L49.3747466,56.1145784 L53.501027,59.8522247 L52.3406691,54.3951207 L43.8182954,49.4747259 Z M63.549395,34.5335625 L54.4112783,50.361245 L43.3278747,43.9622825 L41.7448564,46.7041505 L55.5679542,54.6849198 L66.2891081,36.1153366 L63.549395,34.5335625 Z M61.3262797,21.3044931 C60.2261666,21.1528505 59.2322145,21.2236694 58.3444246,21.5169503 C57.4566348,21.8102313 56.6752188,22.2748156 56.0001756,22.9107023 C55.3251336,23.5465898 54.7592137,24.2601305 54.302417,25.0513256 L54.302417,25.0513256 L44.1006257,42.7213465 L47.0894036,44.4469183 L57.3480973,26.6783395 L57.3873302,26.6116371 C58.6974072,24.4250571 61.5221917,23.6849436 63.7351028,24.9625684 L63.7351028,24.9625684 L63.8208738,25.013292 C63.877562,25.0476233 63.9332671,25.0829815 63.9879781,25.1193283 C63.9902979,25.1208694 63.9926166,25.1224126 63.9949219,25.1239501 C64.0478075,25.1592194 64.0997618,25.1954143 64.1507352,25.2324714 C64.2015101,25.2693832 64.2513521,25.3071775 64.3002981,25.3458567 C64.3047151,25.3493476 64.3091261,25.3528461 64.3134908,25.3563212 L64.3134908,25.3563212 L64.4135661,25.4382927 C64.425258,25.4481444 64.4368927,25.4580463 64.4485035,25.4680268 L64.4485035,25.4680268 L64.4840417,25.4988901 L64.4840417,25.4988901 L64.5280618,25.5380096 C64.560974,25.5676334 64.5933928,25.5976661 64.6253016,25.6280817 C64.6282952,25.6309349 64.6312837,25.6337913 64.6342865,25.6366688 C64.6489592,25.6507303 64.6635268,25.6648759 64.6779282,25.6790451 C64.6805386,25.6816129 64.6831444,25.6841829 64.6858168,25.6868247 L64.7532721,25.7549009 L64.7532721,25.7549009 L64.7664804,25.7685653 L64.7921765,25.7954741 L64.7921765,25.7954741 L64.8088294,25.813146 C64.820597,25.8256994 64.8322866,25.8383101 64.8438713,25.8509473 C64.8514673,25.8592338 64.8590306,25.8675451 64.8665615,25.8758811 L64.877123,25.887612 L64.877123,25.887612 L64.8876568,25.8993929 L64.8876568,25.8993929 L64.9712175,25.9958073 C64.9758826,26.0013419 64.9805325,26.0068854 64.9851089,26.0123666 L64.9851089,26.0123666 L65.0070032,26.0387883 C65.0154954,26.0491146 65.0239403,26.0594739 65.0323592,26.0698926 C65.0388572,26.0779353 65.0453285,26.0859985 65.051778,26.0940907 C65.0607148,26.1053035 65.0695956,26.1165528 65.0783557,26.1277552 C65.082567,26.1331411 65.0867665,26.1385359 65.091014,26.1440173 C65.0994167,26.1548609 65.1077673,26.1657374 65.1160672,26.1766467 L65.1160672,26.1766467 L65.1266309,26.1905865 C65.1620116,26.2374583 65.1964465,26.2849274 65.2299383,26.3329773 C65.2365462,26.3424575 65.2431165,26.3519596 65.2496333,26.3614597 C65.2558474,26.3705176 65.2620271,26.3795948 65.2682048,26.3887388 C65.2751148,26.398967 65.2819836,26.4092205 65.2887633,26.4194298 L65.2887633,26.4194298 L65.306966,26.4470515 C65.3141769,26.4580785 65.3213387,26.4691331 65.3284355,26.4801909 L65.3284355,26.4801909 L65.3489167,26.5123877 C65.3546693,26.5215144 65.3603908,26.5306605 65.3660917,26.5398452 C65.3682079,26.5432547 65.3703194,26.5466665 65.3724262,26.5500808 L65.3724262,26.5500808 L65.3832349,26.5676829 C65.3883232,26.5760105 65.3933846,26.5843528 65.3984194,26.5927097 L65.3984194,26.5927097 L65.4099432,26.6119433 L65.4172784,26.6242967 C65.4251353,26.6375753 65.432925,26.6508899 65.4406816,26.6642993 L65.4406816,26.6642993 L65.4627009,26.7027906 L65.4627009,26.7027906 L65.4727324,26.7206114 L65.4727324,26.7206114 L65.494755,26.760391 C65.5008357,26.7715005 65.506869,26.7826317 65.5128464,26.7937676 L65.5128464,26.7937676 L65.5228432,26.8124941 L65.5472168,26.8590296 L65.5543709,26.8729332 L65.5785608,26.9208167 C65.5821887,26.9281016 65.5857968,26.9353951 65.5894415,26.9428092 C65.5964411,26.9570522 65.6033683,26.9713287 65.6101998,26.9855927 C65.6155141,26.9966894 65.6207852,27.0078062 65.6260168,27.0189543 L65.6260168,27.0189543 L65.6353411,27.0389461 C65.6424374,27.0542555 65.6494499,27.0696007 65.6563863,27.0849972 L65.6563863,27.0849972 L65.6672315,27.1092542 L65.6855713,27.1511392 C65.6887031,27.1583861 65.6918146,27.1656395 65.6949085,27.1729004 C65.7004078,27.185805 65.7058474,27.1987322 65.7112404,27.2117116 C65.7158209,27.2227333 65.7203576,27.2337706 65.7248292,27.244768 C65.7278561,27.2522112 65.7308638,27.2596617 65.7338926,27.2672222 C65.7391927,27.2804516 65.7444328,27.2937043 65.7496021,27.3069561 C65.7547321,27.3201062 65.7598029,27.3332784 65.7648151,27.3464773 L65.7648151,27.3464773 L65.7865494,27.4048718 C65.7919693,27.4197345 65.7973128,27.4346227 65.8025798,27.4495316 C65.8057216,27.4584236 65.8088354,27.4673238 65.811914,27.4762101 L65.811914,27.4762101 L65.8230951,27.5088613 L65.8230951,27.5088613 L65.8351415,27.5449489 C65.8388308,27.556151 65.8424775,27.5673666 65.8460905,27.5786232 C65.8500857,27.5910671 65.8540273,27.6035263 65.8578943,27.6159248 L65.8578943,27.6159248 L65.8679636,27.6486321 L65.8679636,27.6486321 L65.8822868,27.6966844 L65.8822868,27.6966844 L65.887047,27.7130821 L65.8971816,27.7487567 C65.906412,27.7817437 65.9152823,27.8148311 65.9237876,27.8479985 C65.9275593,27.8627075 65.9312592,27.8774345 65.9349001,27.8922262 C65.9377975,27.9039975 65.9406488,27.9157798 65.943453,27.9275629 L65.943453,27.9275629 L65.9537967,27.9719891 L65.9580921,27.9910369 C65.9612502,28.0051722 65.9643419,28.019322 65.9673699,28.0334901 C65.9691205,28.0416827 65.9708486,28.0498799 65.9725631,28.0581151 L65.9725631,28.0581151 L65.9804595,28.0968811 L65.9885219,28.1382902 L65.9932271,28.163424 C65.9957113,28.1768917 65.9981359,28.1903707 66.0005127,28.2039266 C66.0027859,28.2168884 66.0050048,28.2298608 66.0071639,28.2428046 L66.0071639,28.2428046 L66.0094411,28.2565878 L66.0174084,28.3069764 L66.0239024,28.3509352 C66.0249977,28.3586036 66.0260756,28.3662761 66.0271266,28.3739003 L66.0271266,28.3739003 L66.0294908,28.3912887 L66.0317909,28.4086963 C66.0338303,28.4243464 66.0357901,28.4400082 66.0376715,28.4556818 C66.0386334,28.4636991 66.0395751,28.4717196 66.0404968,28.4797433 C66.0421676,28.4942978 66.0437698,28.5088618 66.0453031,28.5234129 C66.0463497,28.5333484 66.047364,28.5432881 66.0483494,28.5532491 L66.0483494,28.5532491 L66.0526548,28.599089 C66.0529202,28.6020748 66.0531836,28.6050611 66.0534385,28.6079989 C66.055143,28.6275739 66.0567245,28.6471635 66.0581833,28.6667702 L66.0581833,28.6667702 L66.0605554,28.7002819 L66.0605554,28.7002819 L66.0625189,28.7309956 L66.0625189,28.7309956 L66.0683607,28.8542324 C66.0686428,28.8624751 66.0689037,28.8707201 66.0691435,28.879016 L66.0691435,28.879016 L66.0697976,28.9039277 C66.0712865,28.9670873 66.0714998,29.0303398 66.0704228,29.0937191 C66.0702058,29.106473 66.0699362,29.1192289 66.069617,29.1318837 L66.069617,29.1318837 L66.0684876,29.1704421 C66.0681971,29.179116 66.0678827,29.1877907 66.0675485,29.1963706 C66.0669822,29.2108741 66.0663484,29.2253795 66.0656444,29.2399405 L66.0656444,29.2399405 L66.0636495,29.2779589 L66.0636495,29.2779589 L66.0605406,29.3281299 L66.0605406,29.3281299 L66.0593837,29.3448481 C66.0584373,29.3581953 66.0574317,29.3715416 66.0563728,29.3848334 C66.0555312,29.3954079 66.0546519,29.4059815 66.0537341,29.4165903 C66.0526533,29.4290888 66.0515214,29.4415868 66.0503386,29.4540724 C66.0493321,29.4647081 66.048288,29.4753428 66.0472084,29.4859758 C66.0458059,29.4997737 66.0443411,29.5135701 66.0428222,29.5272992 C66.0357236,29.5914651 66.0272778,29.6555917 66.0174762,29.7196191 C66.0163629,29.7268937 66.0152321,29.734167 66.0140815,29.7414489 L66.0140815,29.7414489 L66.0091014,29.7723086 C66.0070071,29.7850212 66.0048573,29.7977292 66.0026608,29.8104031 C66.0001671,29.8247796 65.9976061,29.8391518 65.9949763,29.8535108 L65.9949763,29.8535108 L65.9742772,29.9595877 L65.9670242,29.9939298 C65.9537973,30.0554119 65.9392931,30.116765 65.9234902,30.1779893 C65.9146528,30.2122257 65.9054121,30.24641 65.8957779,30.2804993 C65.8729272,30.3613449 65.8478052,30.4418625 65.820388,30.5219607 C65.8159943,30.5347937 65.8115431,30.5476167 65.8070198,30.5604641 L65.8070198,30.5604641 L65.7675659,30.668267 C65.7542718,30.7032542 65.7405303,30.7381506 65.7263751,30.7728663 C65.7214769,30.784879 65.7165256,30.7968801 65.7114832,30.8089586 C65.6686767,30.9114901 65.6219547,31.0131477 65.5712712,31.1137293 C65.5636863,31.1287821 65.5560135,31.1438116 65.5482456,31.1588248 C65.5147289,31.2236101 65.4795526,31.2879395 65.4427041,31.351763 L65.4427041,31.351763 L64.3270622,33.2841115 L67.0667306,34.8659629 L67.8780833,33.4606587 L67.9307614,33.3686469 C69.1827556,31.1630698 69.5515737,29.1531188 69.0372144,27.3387933 C68.5157118,25.4992689 67.1552702,23.9446002 64.9558908,22.674788 C63.6362644,21.9129013 62.4263928,21.4561357 61.3262797,21.3044931 Z" id="Combined-Shape"></path>
        </g>
    </g>
</svg>